# xmcd CD database file
#
# Track frame offsets:
#	150
#	31775
#	36496
#	71565
#	77043
#	116175
#	136599
#	138811
#	158751
#	187980
#	226321
#	229805
#
# Disc length: 3370 seconds
#
# Revision: 0
# Processed by: cddbd v1.5.2PL0 Copyright (c) Steve Scherf et al.
# Submitted via: CDex 1.79
#
DISCID=950d280c
DTITLE=Athanas,Stefan and The ContempArabic Jazz Ensemble - Nuba Hsin
DYEAR=2005
DGENRE=Jazz
TTITLE0=Istiftah, Msaddar
TTITLE1=Dkhul
TTITLE2=Abyat
TTITLE3=Dkhul
TTITLE4=Btayhi
TTITLE5=Tushya
TTITLE6=Introduction
TTITLE7=Barawil
TTITLE8=Draj
TTITLE9=Khafif
TTITLE10=Introduction
TTITLE11=Khatm
EXTD=YEAR: 2005
EXTT0=
EXTT1=
EXTT2=
EXTT3=
EXTT4=
EXTT5=
EXTT6=
EXTT7=
EXTT8=
EXTT9=
EXTT10=
EXTT11=
PLAYORDER=
